# xmcd
#
# Track frame offsets:
#	150
#	20625
#	41764
#	58572
#	74926
#	90288
#	108382
#	131450
#	144561
#	163441
#	181724
#	203962
#	215581
#	234433
#	250969
#	274995
#	306356
#	321319
#
# Disc length: 4513 seconds
#
# Revision: 1
# Processed by: cddbd v1.4PL0 Copyright (c) Steve Scherf et al.
# Submitted via: audiograbber 1.81.03
#
DISCID=18119f12
DTITLE=Willie Nelson - Farther Along
DYEAR=2003
DGENRE=Gospel
TTITLE0=HAVE A LITTLE TALK WITH JESUS
TTITLE1=I'D RATHER HAVE JESUS
TTITLE2=WHERE THE SOUL OF MAN
TTITLE3=LILY OF THE VALLEY
TTITLE4=I'LL FLY AWAY
TTITLE5=BLOOD OF THE LAMB
TTITLE6=WHERE HE LEADS ME
TTITLE7=OLD TIME RELIGION
TTITLE8=THINE THE GLORY
TTITLE9=IN THE SWEET BY and BY
TTITLE10=WHEN WE ALL GET TO HEAVEN
TTITLE11=KNEEL AT THE FEET
TTITLE12=SWING LOW SWEET CHARIOT
TTITLE13=JUST AS I AM
TTITLE14=FARTHER ALONG
TTITLE15=JUST A CLOSER WALK
TTITLE16=WHAT A FRIEND WE HAVE
TTITLE17=HOW GREAT THOU ART
EXTD=
EXTT0=
EXTT1=
EXTT2=
EXTT3=
EXTT4=
EXTT5=
EXTT6=
EXTT7=
EXTT8=
EXTT9=
EXTT10=
EXTT11=
EXTT12=
EXTT13=
EXTT14=
EXTT15=
EXTT16=
EXTT17=
PLAYORDER=
